# xmcd
#
# Track frame offsets:
# 150
# 15148
# 25828
# 36647
# 51324
# 62615
# 74255
# 88054
# 99361
# 111336
# 120496
# 131858
#
# Disc length: 1915 seconds
#
#
# Revision: 0
# Processed by: cddbd v1.5.1PL2 Copyright (c) Steve Scherf et al.
# Submitted via: FreeRIP 2.944 
#
DISCID=a107790c
DTITLE=Cherry Navarro - Aleluya
DYEAR=1965
DGENRE=Ballad
TTITLE0=Aleluya
TTITLE1=Cuando creas
TTITLE2=Ole
TTITLE3=Post guerra
TTITLE4=El gran show
TTITLE5=Era mia
TTITLE6=No quisiera
TTITLE7=Ciao ciao ciao
TTITLE8=María María
TTITLE9=Ven cerca de mi
TTITLE10=Catherina
TTITLE11=Grovin
EXTD=Reedited 1996
EXTT0=
EXTT1=
EXTT2=
EXTT3=
EXTT4=
EXTT5=
EXTT6=
EXTT7=
EXTT8=
EXTT9=
EXTT10=
EXTT11=
PLAYORDER=
